<svg viewBox="82 -4 118 57" fill="none" xmlns="http://www.w3.org/2000/svg">
<path d="M98.2943 48.9314C91.5376 48.9314 86.0602 43.4546 86.0602 36.6985C86.0602 33.9956 87.0965 31.2846 88.5812 29.26L106.932 4.79429C109.168 1.87935 112.687 0 116.645 0C123.402 0 128.879 5.47683 128.879 12.2328C128.879 14.9358 128.003 17.434 126.518 19.4586L108.167 43.9243C105.931 46.8392 102.252 48.9314 98.2943 48.9314Z" fill="#0057FF"/>
<path d="M134.996 40.7762C130.492 40.7762 126.84 37.1249 126.84 32.6209C126.84 30.8189 127.531 29.0116 128.521 27.6619L140.755 11.3514C142.246 9.40813 144.592 8.15523 147.23 8.15523C151.735 8.15523 155.387 11.8065 155.387 16.3105C155.387 18.1124 154.802 19.7779 153.812 21.1277L141.578 37.4381C140.087 39.3814 137.635 40.7762 134.996 40.7762Z" fill="#FF8A00"/>
<path d="M165.582 48.9314C158.825 48.9314 153.348 43.4546 153.348 36.6985C153.348 33.9956 154.384 31.2846 155.868 29.26L174.22 4.79429C176.456 1.87935 179.975 0 183.933 0C190.689 0 196.167 5.47683 196.167 12.2328C196.167 14.9358 195.29 17.434 193.805 19.4586L175.454 43.9243C173.218 46.8392 169.54 48.9314 165.582 48.9314Z" fill="#00E094"/>
</svg>
